#define bookmark_width 48
#define bookmark_height 48
static char bookmark_bits[] = {
   0x00, 0x00, 0x00, 0x00, 0x00, 0x00, 0x00, 0x11, 0x00, 0x00, 0x00, 0x00,
   0x00, 0x11, 0x00, 0x00, 0x00, 0x00, 0x00, 0x1b, 0x00, 0x00, 0x00, 0x00,
   0x00, 0x1b, 0x00, 0x00, 0x00, 0x00, 0x00, 0x1f, 0x00, 0x00, 0x00, 0x00,
   0x00, 0x1f, 0x00, 0x00, 0x00, 0x00, 0x00, 0xff, 0x07, 0xc0, 0x1f, 0x00,
   0x00, 0x0f, 0x08, 0x20, 0x20, 0x00, 0x00, 0x07, 0x30, 0x18, 0xe0, 0x00,
   0x80, 0x01, 0xc0, 0x06, 0x20, 0x03, 0x40, 0x00, 0x00, 0x01, 0x20, 0x04,
   0x70, 0x00, 0x00, 0x01, 0x20, 0x1c, 0x5c, 0x00, 0x00, 0x01, 0x20, 0x74,
   0x54, 0x00, 0x00, 0x01, 0xe0, 0x54, 0x54, 0x00, 0x00, 0x01, 0x00, 0x55,
   0x54, 0x00, 0x00, 0x01, 0x00, 0x56, 0x54, 0x00, 0x00, 0x01, 0x00, 0x54,
   0x54, 0x00, 0x00, 0x01, 0x00, 0x54, 0x54, 0x00, 0x00, 0x01, 0x00, 0x54,
   0x54, 0x00, 0x00, 0x01, 0x00, 0x54, 0x54, 0x40, 0x00, 0x01, 0x04, 0x54,
   0x54, 0x60, 0x00, 0x01, 0x0c, 0x54, 0x54, 0xf0, 0x0f, 0xe1, 0x1f, 0x54,
   0x54, 0xf8, 0x0f, 0xe1, 0x3f, 0x54, 0x54, 0xf0, 0x0f, 0xe1, 0x1f, 0x54,
   0x54, 0x60, 0x00, 0x01, 0x0c, 0x54, 0x54, 0x40, 0x00, 0x01, 0x04, 0x54,
   0x54, 0x00, 0x00, 0x01, 0x00, 0x54, 0x54, 0x00, 0x00, 0x01, 0x00, 0x54,
   0x54, 0x00, 0x00, 0x01, 0x00, 0x54, 0x54, 0x00, 0x00, 0x01, 0x00, 0x54,
   0x54, 0x00, 0x00, 0x01, 0x00, 0x54, 0x54, 0x00, 0x00, 0x01, 0x00, 0x54,
   0x54, 0x00, 0x00, 0x01, 0x00, 0x54, 0x54, 0x00, 0x00, 0x01, 0x00, 0x54,
   0x54, 0x00, 0x00, 0x01, 0x00, 0x54, 0x54, 0x00, 0x00, 0x01, 0x00, 0x54,
   0x54, 0xf0, 0x07, 0xc1, 0x1f, 0x54, 0x54, 0xc8, 0x08, 0x21, 0x20, 0x54,
   0x54, 0x36, 0x3f, 0x99, 0xff, 0x54, 0xd4, 0x8f, 0xf1, 0xe7, 0x80, 0x57,
   0x54, 0x7d, 0x4e, 0xdd, 0xff, 0x57, 0xf4, 0xff, 0xbf, 0x3b, 0x7f, 0x5e,
   0xec, 0x07, 0xf0, 0xf5, 0x81, 0x67, 0x00, 0x00, 0xe0, 0x0f, 0x00, 0x00,
   0x00, 0x00, 0x00, 0x00, 0x00, 0x00, 0x00, 0x00, 0x00, 0x00, 0x00, 0x00};
